<svg width="126" height="126" viewBox="0 0 126 126" fill="none" xmlns="http://www.w3.org/2000/svg">
<rect width="126" height="126" rx="63" fill="#3F51B5"/>
<path d="M30.9635 29.1832L89.7619 31.3725C91.1812 31.4253 92.3045 32.5912 92.3045 34.0115V83.5436C92.3045 84.7807 91.4459 85.852 90.2385 86.1212L46.9426 95.7771C45.5472 96.0884 44.1574 95.2325 43.8073 93.8463L28.3048 32.469C27.8734 30.7611 29.2032 29.1176 30.9635 29.1832Z" fill="#3F51B5" stroke="white" stroke-width="5.28182"/>
<path d="M60.9225 66.6471L49.8524 51.7115C49.5855 51.3513 49.0653 51.3019 48.7354 51.6054L44.8985 55.135C44.6111 55.3994 44.5729 55.8394 44.8104 56.1494L60.9275 77.1791C61.2313 77.5755 61.8295 77.5727 62.1295 77.1735L85.4804 46.1061C85.7134 45.7961 85.6735 45.36 85.3881 45.0974L81.5499 41.5666C81.2187 41.262 80.6963 41.313 80.4304 41.676L62.1374 66.6438C61.8369 67.0538 61.2252 67.0555 60.9225 66.6471Z" fill="white"/>
</svg>
